# xmcd
#
# Track frame offsets:
#	150
#	14211
#	28028
#	39122
#	55344
#	70832
#	83466
#	98477
#	110508
#	127229
#	139047
#	152782
#	162368
#	179502
#	198772
#
# Disc length: 2802 seconds
#
# Revision: 1
# Processed by: cddbd v1.5.2PL0 Copyright (c) Steve Scherf et al.
# Submitted via: audiograbber 1.83.01
#
DISCID=c50af00f
DTITLE=Die fidelen Mölltaler - Das Beste - Unsere größten Hits - CD 01
DYEAR=1900
DGENRE=Volkstümliche Musik
TTITLE0=Eine Herde weißer Schafe
TTITLE1=Heut klinkt die Harmonika
TTITLE2=Eine Runde Bier
TTITLE3=Pius Walder Lied
TTITLE4=Die frohe Fahrt
TTITLE5=Freude, Glück und Sonnenschein
TTITLE6=Die alte Lärche
TTITLE7=Auf der Reise um die Welt
TTITLE8=Carinthia
TTITLE9=Einen schönen Abend
TTITLE10=Am stillen Bergsee
TTITLE11=Ein frohes Wiederseh'n
TTITLE12=Mein Geheimnis, das bist du
TTITLE13=Zwoa alte Leut
TTITLE14=Alphornzauber
EXTD=
EXTT0=
EXTT1=
EXTT2=
EXTT3=
EXTT4=
EXTT5=
EXTT6=
EXTT7=
EXTT8=
EXTT9=
EXTT10=
EXTT11=
EXTT12=
EXTT13=
EXTT14=
PLAYORDER=
